<svg version="1.1" viewBox="0.0 0.0 435.8608923884514 259.1391076115486" fill="none" stroke="none" stroke-linecap="square" stroke-miterlimit="10" xmlns:xlink="http://www.w3.org/1999/xlink" xmlns="http://www.w3.org/2000/svg"><clipPath id="p.0"><path d="m0 0l435.8609 0l0 259.1391l-435.8609 0l0 -259.1391z" clip-rule="nonzero"/></clipPath><g clip-path="url(#p.0)"><path fill="#000000" fill-opacity="0.0" d="m0 0l435.8609 0l0 259.1391l-435.8609 0z" fill-rule="evenodd"/><path shape-rendering="crispEdges" fill="#ffffff" d="m77.71391 -0.35170603l59.094482 0l0 51.968506l-59.094482 0l0 -51.968506z" fill-rule="nonzero"/><path shape-rendering="crispEdges" fill="#ffffff" d="m136.8084 -0.35170603l59.094498 0l0 51.968506l-59.094498 0l0 -51.968506z" fill-rule="nonzero"/><path shape-rendering="crispEdges" fill="#ffffff" d="m195.9029 -0.35170603l59.094482 0l0 51.968506l-59.094482 0l0 -51.968506z" fill-rule="nonzero"/><path shape-rendering="crispEdges" fill="#ffffff" d="m254.99738 -0.35170603l59.094482 0l0 51.968506l-59.094482 0l0 -51.968506z" fill-rule="nonzero"/><path shape-rendering="crispEdges" fill="#ffffff" d="m314.09186 -0.35170603l59.094482 0l0 51.968506l-59.094482 0l0 -51.968506z" fill-rule="nonzero"/><path shape-rendering="crispEdges" fill="#ffffff" d="m77.71391 51.6168l59.094482 0l0 51.968506l-59.094482 0l0 -51.968506z" fill-rule="nonzero"/><path shape-rendering="crispEdges" fill="#cfe2f3" d="m136.8084 51.6168l59.094498 0l0 51.968506l-59.094498 0l0 -51.968506z" fill-rule="nonzero"/><path shape-rendering="crispEdges" fill="#cfe2f3" d="m195.9029 51.6168l59.094482 0l0 51.968506l-59.094482 0l0 -51.968506z" fill-rule="nonzero"/><path shape-rendering="crispEdges" fill="#cfe2f3" d="m254.99738 51.6168l59.094482 0l0 51.968506l-59.094482 0l0 -51.968506z" fill-rule="nonzero"/><path shape-rendering="crispEdges" fill="#ffffff" d="m314.09186 51.6168l59.094482 0l0 51.968506l-59.094482 0l0 -51.968506z" fill-rule="nonzero"/><path shape-rendering="crispEdges" fill="#ffffff" d="m77.71391 103.585304l59.094482 0l0 51.9685l-59.094482 0l0 -51.9685z" fill-rule="nonzero"/><path shape-rendering="crispEdges" fill="#cfe2f3" d="m136.8084 103.585304l59.094498 0l0 51.9685l-59.094498 0l0 -51.9685z" fill-rule="nonzero"/><path shape-rendering="crispEdges" fill="#cfe2f3" d="m195.9029 103.585304l59.094482 0l0 51.9685l-59.094482 0l0 -51.9685z" fill-rule="nonzero"/><path shape-rendering="crispEdges" fill="#cfe2f3" d="m254.99738 103.585304l59.094482 0l0 51.9685l-59.094482 0l0 -51.9685z" fill-rule="nonzero"/><path shape-rendering="crispEdges" fill="#ffffff" d="m314.09186 103.585304l59.094482 0l0 51.9685l-59.094482 0l0 -51.9685z" fill-rule="nonzero"/><path shape-rendering="crispEdges" fill="#ffffff" d="m77.71391 155.5538l59.094482 0l0 51.968506l-59.094482 0l0 -51.968506z" fill-rule="nonzero"/><path shape-rendering="crispEdges" fill="#cfe2f3" d="m136.8084 155.5538l59.094498 0l0 51.968506l-59.094498 0l0 -51.968506z" fill-rule="nonzero"/><path shape-rendering="crispEdges" fill="#cfe2f3" d="m195.9029 155.5538l59.094482 0l0 51.968506l-59.094482 0l0 -51.968506z" fill-rule="nonzero"/><path shape-rendering="crispEdges" fill="#cfe2f3" d="m254.99738 155.5538l59.094482 0l0 51.968506l-59.094482 0l0 -51.968506z" fill-rule="nonzero"/><path shape-rendering="crispEdges" fill="#ffffff" d="m314.09186 155.5538l59.094482 0l0 51.968506l-59.094482 0l0 -51.968506z" fill-rule="nonzero"/><path shape-rendering="crispEdges" fill="#ffffff" d="m77.71391 207.52231l59.094482 0l0 51.968506l-59.094482 0l0 -51.968506z" fill-rule="nonzero"/><path shape-rendering="crispEdges" fill="#ffffff" d="m136.8084 207.52231l59.094498 0l0 51.968506l-59.094498 0l0 -51.968506z" fill-rule="nonzero"/><path shape-rendering="crispEdges" fill="#ffffff" d="m195.9029 207.52231l59.094482 0l0 51.968506l-59.094482 0l0 -51.968506z" fill-rule="nonzero"/><path shape-rendering="crispEdges" fill="#ffffff" d="m254.99738 207.52231l59.094482 0l0 51.968506l-59.094482 0l0 -51.968506z" fill-rule="nonzero"/><path shape-rendering="crispEdges" fill="#ffffff" d="m314.09186 207.52231l59.094482 0l0 51.968506l-59.094482 0l0 -51.968506z" fill-rule="nonzero"/><path stroke="#000000" stroke-width="1.0" stroke-linecap="butt" d="m77.71391 -0.8503937l0 260.8399" fill-rule="nonzero"/><path stroke="#000000" stroke-width="1.0" stroke-linecap="butt" d="m136.8084 -0.8503937l0 260.8399" fill-rule="nonzero"/><path stroke="#000000" stroke-width="1.0" stroke-linecap="butt" d="m195.9029 -0.8503937l0 260.8399" fill-rule="nonzero"/><path stroke="#000000" stroke-width="1.0" stroke-linecap="butt" d="m254.99738 -0.8503937l0 260.8399" fill-rule="nonzero"/><path stroke="#000000" stroke-width="1.0" stroke-linecap="butt" d="m314.09186 -0.8503937l0 260.8399" fill-rule="nonzero"/><path stroke="#000000" stroke-width="1.0" stroke-linecap="butt" d="m373.18634 -0.8503937l0 260.8399" fill-rule="nonzero"/><path stroke="#000000" stroke-width="1.0" stroke-linecap="butt" d="m77.215225 -0.35170603l296.4698 0" fill-rule="nonzero"/><path stroke="#000000" stroke-width="1.0" stroke-linecap="butt" d="m77.215225 51.6168l296.4698 0" fill-rule="nonzero"/><path stroke="#000000" stroke-width="1.0" stroke-linecap="butt" d="m77.215225 103.585304l296.4698 0" fill-rule="nonzero"/><path stroke="#000000" stroke-width="1.0" stroke-linecap="butt" d="m77.215225 155.5538l296.4698 0" fill-rule="nonzero"/><path stroke="#000000" stroke-width="1.0" stroke-linecap="butt" d="m77.215225 207.52231l296.4698 0" fill-rule="nonzero"/><path stroke="#000000" stroke-width="1.0" stroke-linecap="butt" d="m77.215225 259.4908l296.4698 0" fill-rule="nonzero"/><path fill="#d9ead3" d="m210.41077 129.56955l0 0c0 -8.306007 6.7333527 -15.039368 15.039368 -15.039368c8.306015 0 15.039368 6.7333603 15.039368 15.039368c0 8.306015 -6.7333527 15.039368 -15.039368 15.039368c-8.306015 0 -15.039368 -6.7333527 -15.039368 -15.039368z" fill-rule="evenodd"/><path fill="#adbba8" d="m219.06537 125.07167c0 -0.8652115 0.7013855 -1.5666046 1.5665894 -1.5666046c0.8652191 0 1.5666046 0.7013931 1.5666046 1.5666046c0 0.86520386 -0.7013855 1.566597 -1.5666046 1.566597c-0.86520386 0 -1.5665894 -0.7013931 -1.5665894 -1.566597m9.636337 0c0 -0.8652115 0.7013855 -1.5666046 1.5665894 -1.5666046c0.8652191 0 1.5666046 0.7013931 1.5666046 1.5666046c0 0.86520386 -0.7013855 1.566597 -1.5666046 1.566597c-0.86520386 0 -1.5665894 -0.7013931 -1.5665894 -1.566597" fill-rule="evenodd"/><path fill="#000000" fill-opacity="0.0" d="m217.29869 136.12833q8.1514435 5.5982513 16.283844 0" fill-rule="evenodd"/><path fill="#000000" fill-opacity="0.0" d="m210.41077 129.56955l0 0c0 -8.306007 6.7333527 -15.039368 15.039368 -15.039368c8.306015 0 15.039368 6.7333603 15.039368 15.039368c0 8.306015 -6.7333527 15.039368 -15.039368 15.039368c-8.306015 0 -15.039368 -6.7333527 -15.039368 -15.039368z" fill-rule="evenodd"/><path stroke="#000000" stroke-width="1.0" stroke-linejoin="round" stroke-linecap="butt" d="m219.06537 125.07167c0 -0.8652115 0.7013855 -1.5666046 1.5665894 -1.5666046c0.8652191 0 1.5666046 0.7013931 1.5666046 1.5666046c0 0.86520386 -0.7013855 1.566597 -1.5666046 1.566597c-0.86520386 0 -1.5665894 -0.7013931 -1.5665894 -1.566597m9.636337 0c0 -0.8652115 0.7013855 -1.5666046 1.5665894 -1.5666046c0.8652191 0 1.5666046 0.7013931 1.5666046 1.5666046c0 0.86520386 -0.7013855 1.566597 -1.5666046 1.566597c-0.86520386 0 -1.5665894 -0.7013931 -1.5665894 -1.566597" fill-rule="evenodd"/><path stroke="#000000" stroke-width="1.0" stroke-linejoin="round" stroke-linecap="butt" d="m217.29869 136.12833q8.1514435 5.5982513 16.283844 0" fill-rule="evenodd"/><path stroke="#000000" stroke-width="1.0" stroke-linejoin="round" stroke-linecap="butt" d="m210.41077 129.56955l0 0c0 -8.306007 6.7333527 -15.039368 15.039368 -15.039368c8.306015 0 15.039368 6.7333603 15.039368 15.039368c0 8.306015 -6.7333527 15.039368 -15.039368 15.039368c-8.306015 0 -15.039368 -6.7333527 -15.039368 -15.039368z" fill-rule="evenodd"/><path fill="#fff2cc" d="m265.7152 129.56955l0 0c0 -8.306007 6.733368 -15.039368 15.039398 -15.039368c8.306 0 15.039368 6.7333603 15.039368 15.039368c0 8.306015 -6.733368 15.039368 -15.039368 15.039368c-8.30603 0 -15.039398 -6.7333527 -15.039398 -15.039368z" fill-rule="evenodd"/><path fill="#cbc1a3" d="m274.3698 125.07167c0 -0.8652115 0.701416 -1.5666046 1.5666199 -1.5666046c0.86520386 0 1.5665894 0.7013931 1.5665894 1.5666046c0 0.86520386 -0.7013855 1.566597 -1.5665894 1.566597c-0.86520386 0 -1.5666199 -0.7013931 -1.5666199 -1.566597m9.636353 0c0 -0.8652115 0.7013855 -1.5666046 1.5665894 -1.5666046c0.86520386 0 1.5666199 0.7013931 1.5666199 1.5666046c0 0.86520386 -0.701416 1.566597 -1.5666199 1.566597c-0.86520386 0 -1.5665894 -0.7013931 -1.5665894 -1.566597" fill-rule="evenodd"/><path fill="#000000" fill-opacity="0.0" d="m272.60315 136.12833q8.151459 5.5982513 16.283844 0" fill-rule="evenodd"/><path fill="#000000" fill-opacity="0.0" d="m265.7152 129.56955l0 0c0 -8.306007 6.733368 -15.039368 15.039398 -15.039368c8.306 0 15.039368 6.7333603 15.039368 15.039368c0 8.306015 -6.733368 15.039368 -15.039368 15.039368c-8.30603 0 -15.039398 -6.7333527 -15.039398 -15.039368z" fill-rule="evenodd"/><path stroke="#000000" stroke-width="1.0" stroke-linejoin="round" stroke-linecap="butt" d="m274.3698 125.07167c0 -0.8652115 0.701416 -1.5666046 1.5666199 -1.5666046c0.86520386 0 1.5665894 0.7013931 1.5665894 1.5666046c0 0.86520386 -0.7013855 1.566597 -1.5665894 1.566597c-0.86520386 0 -1.5666199 -0.7013931 -1.5666199 -1.566597m9.636353 0c0 -0.8652115 0.7013855 -1.5666046 1.5665894 -1.5666046c0.86520386 0 1.5666199 0.7013931 1.5666199 1.5666046c0 0.86520386 -0.701416 1.566597 -1.5666199 1.566597c-0.86520386 0 -1.5665894 -0.7013931 -1.5665894 -1.566597" fill-rule="evenodd"/><path stroke="#000000" stroke-width="1.0" stroke-linejoin="round" stroke-linecap="butt" d="m272.60315 136.12833q8.151459 5.5982513 16.283844 0" fill-rule="evenodd"/><path stroke="#000000" stroke-width="1.0" stroke-linejoin="round" stroke-linecap="butt" d="m265.7152 129.56955l0 0c0 -8.306007 6.733368 -15.039368 15.039398 -15.039368c8.306 0 15.039368 6.7333603 15.039368 15.039368c0 8.306015 -6.733368 15.039368 -15.039368 15.039368c-8.30603 0 -15.039398 -6.7333527 -15.039398 -15.039368z" fill-rule="evenodd"/><path fill="#ffffff" d="m325.48688 129.56955l0 0c0 -8.306007 6.733368 -15.039368 15.039368 -15.039368c8.30603 0 15.039368 6.7333603 15.039368 15.039368c0 8.306015 -6.7333374 15.039368 -15.039368 15.039368c-8.306 0 -15.039368 -6.7333527 -15.039368 -15.039368z" fill-rule="evenodd"/><path fill="#cbcbcb" d="m334.14148 125.07167c0 -0.8652115 0.7013855 -1.5666046 1.5665894 -1.5666046c0.8652344 0 1.5666199 0.7013931 1.5666199 1.5666046c0 0.86520386 -0.7013855 1.566597 -1.5666199 1.566597c-0.86520386 0 -1.5665894 -0.7013931 -1.5665894 -1.566597m9.636322 0c0 -0.8652115 0.701416 -1.5666046 1.5666199 -1.5666046c0.86520386 0 1.5665894 0.7013931 1.5665894 1.5666046c0 0.86520386 -0.7013855 1.566597 -1.5665894 1.566597c-0.86520386 0 -1.5666199 -0.7013931 -1.5666199 -1.566597" fill-rule="evenodd"/><path fill="#000000" fill-opacity="0.0" d="m332.37482 136.12833q8.151428 5.5982513 16.283844 0" fill-rule="evenodd"/><path fill="#000000" fill-opacity="0.0" d="m325.48688 129.56955l0 0c0 -8.306007 6.733368 -15.039368 15.039368 -15.039368c8.30603 0 15.039368 6.7333603 15.039368 15.039368c0 8.306015 -6.7333374 15.039368 -15.039368 15.039368c-8.306 0 -15.039368 -6.7333527 -15.039368 -15.039368z" fill-rule="evenodd"/><path stroke="#000000" stroke-width="1.0" stroke-linejoin="round" stroke-linecap="butt" d="m334.14148 125.07167c0 -0.8652115 0.7013855 -1.5666046 1.5665894 -1.5666046c0.8652344 0 1.5666199 0.7013931 1.5666199 1.5666046c0 0.86520386 -0.7013855 1.566597 -1.5666199 1.566597c-0.86520386 0 -1.5665894 -0.7013931 -1.5665894 -1.566597m9.636322 0c0 -0.8652115 0.701416 -1.5666046 1.5666199 -1.5666046c0.86520386 0 1.5665894 0.7013931 1.5665894 1.5666046c0 0.86520386 -0.7013855 1.566597 -1.5665894 1.566597c-0.86520386 0 -1.5666199 -0.7013931 -1.5666199 -1.566597" fill-rule="evenodd"/><path stroke="#000000" stroke-width="1.0" stroke-linejoin="round" stroke-linecap="butt" d="m332.37482 136.12833q8.151428 5.5982513 16.283844 0" fill-rule="evenodd"/><path stroke="#000000" stroke-width="1.0" stroke-linejoin="round" stroke-linecap="butt" d="m325.48688 129.56955l0 0c0 -8.306007 6.733368 -15.039368 15.039368 -15.039368c8.30603 0 15.039368 6.7333603 15.039368 15.039368c0 8.306015 -6.7333374 15.039368 -15.039368 15.039368c-8.306 0 -15.039368 -6.7333527 -15.039368 -15.039368z" fill-rule="evenodd"/><path fill="#fff2cc" d="m265.7152 78.57218l0 0c0 -8.306015 6.733368 -15.0393715 15.039398 -15.0393715c8.306 0 15.039368 6.7333565 15.039368 15.0393715c0 8.306015 -6.733368 15.039368 -15.039368 15.039368c-8.30603 0 -15.039398 -6.7333527 -15.039398 -15.039368z" fill-rule="evenodd"/><path fill="#cbc1a3" d="m274.3698 74.074295c0 -0.8652115 0.701416 -1.5666046 1.5666199 -1.5666046c0.86520386 0 1.5665894 0.7013931 1.5665894 1.5666046c0 0.86520386 -0.7013855 1.566597 -1.5665894 1.566597c-0.86520386 0 -1.5666199 -0.7013931 -1.5666199 -1.566597m9.636353 0c0 -0.8652115 0.7013855 -1.5666046 1.5665894 -1.5666046c0.86520386 0 1.5666199 0.7013931 1.5666199 1.5666046c0 0.86520386 -0.701416 1.566597 -1.5666199 1.566597c-0.86520386 0 -1.5665894 -0.7013931 -1.5665894 -1.566597" fill-rule="evenodd"/><path fill="#000000" fill-opacity="0.0" d="m272.60315 85.13095q8.151459 5.5982513 16.283844 0" fill-rule="evenodd"/><path fill="#000000" fill-opacity="0.0" d="m265.7152 78.57218l0 0c0 -8.306015 6.733368 -15.0393715 15.039398 -15.0393715c8.306 0 15.039368 6.7333565 15.039368 15.0393715c0 8.306015 -6.733368 15.039368 -15.039368 15.039368c-8.30603 0 -15.039398 -6.7333527 -15.039398 -15.039368z" fill-rule="evenodd"/><path stroke="#000000" stroke-width="1.0" stroke-linejoin="round" stroke-linecap="butt" d="m274.3698 74.074295c0 -0.8652115 0.701416 -1.5666046 1.5666199 -1.5666046c0.86520386 0 1.5665894 0.7013931 1.5665894 1.5666046c0 0.86520386 -0.7013855 1.566597 -1.5665894 1.566597c-0.86520386 0 -1.5666199 -0.7013931 -1.5666199 -1.566597m9.636353 0c0 -0.8652115 0.7013855 -1.5666046 1.5665894 -1.5666046c0.86520386 0 1.5666199 0.7013931 1.5666199 1.5666046c0 0.86520386 -0.701416 1.566597 -1.5666199 1.566597c-0.86520386 0 -1.5665894 -0.7013931 -1.5665894 -1.566597" fill-rule="evenodd"/><path stroke="#000000" stroke-width="1.0" stroke-linejoin="round" stroke-linecap="butt" d="m272.60315 85.13095q8.151459 5.5982513 16.283844 0" fill-rule="evenodd"/><path stroke="#000000" stroke-width="1.0" stroke-linejoin="round" stroke-linecap="butt" d="m265.7152 78.57218l0 0c0 -8.306015 6.733368 -15.0393715 15.039398 -15.0393715c8.306 0 15.039368 6.7333565 15.039368 15.0393715c0 8.306015 -6.733368 15.039368 -15.039368 15.039368c-8.30603 0 -15.039398 -6.7333527 -15.039398 -15.039368z" fill-rule="evenodd"/><path fill="#fff2cc" d="m210.40945 78.57218l0 0c0 -8.306015 6.7333527 -15.0393715 15.039368 -15.0393715c8.306015 0 15.039368 6.7333565 15.039368 15.0393715c0 8.306015 -6.7333527 15.039368 -15.039368 15.039368c-8.306015 0 -15.039368 -6.7333527 -15.039368 -15.039368z" fill-rule="evenodd"/><path fill="#cbc1a3" d="m219.06406 74.074295c0 -0.8652115 0.7013855 -1.5666046 1.5665894 -1.5666046c0.8652191 0 1.5666046 0.7013931 1.5666046 1.5666046c0 0.86520386 -0.7013855 1.566597 -1.5666046 1.566597c-0.86520386 0 -1.5665894 -0.7013931 -1.5665894 -1.566597m9.636337 0c0 -0.8652115 0.7013855 -1.5666046 1.5665894 -1.5666046c0.8652191 0 1.5666046 0.7013931 1.5666046 1.5666046c0 0.86520386 -0.7013855 1.566597 -1.5666046 1.566597c-0.86520386 0 -1.5665894 -0.7013931 -1.5665894 -1.566597" fill-rule="evenodd"/><path fill="#000000" fill-opacity="0.0" d="m217.29738 85.13095q8.1514435 5.5982513 16.283844 0" fill-rule="evenodd"/><path fill="#000000" fill-opacity="0.0" d="m210.40945 78.57218l0 0c0 -8.306015 6.7333527 -15.0393715 15.039368 -15.0393715c8.306015 0 15.039368 6.7333565 15.039368 15.0393715c0 8.306015 -6.7333527 15.039368 -15.039368 15.039368c-8.306015 0 -15.039368 -6.7333527 -15.039368 -15.039368z" fill-rule="evenodd"/><path stroke="#000000" stroke-width="1.0" stroke-linejoin="round" stroke-linecap="butt" d="m219.06406 74.074295c0 -0.8652115 0.7013855 -1.5666046 1.5665894 -1.5666046c0.8652191 0 1.5666046 0.7013931 1.5666046 1.5666046c0 0.86520386 -0.7013855 1.566597 -1.5666046 1.566597c-0.86520386 0 -1.5665894 -0.7013931 -1.5665894 -1.566597m9.636337 0c0 -0.8652115 0.7013855 -1.5666046 1.5665894 -1.5666046c0.8652191 0 1.5666046 0.7013931 1.5666046 1.5666046c0 0.86520386 -0.7013855 1.566597 -1.5666046 1.566597c-0.86520386 0 -1.5665894 -0.7013931 -1.5665894 -1.566597" fill-rule="evenodd"/><path stroke="#000000" stroke-width="1.0" stroke-linejoin="round" stroke-linecap="butt" d="m217.29738 85.13095q8.1514435 5.5982513 16.283844 0" fill-rule="evenodd"/><path stroke="#000000" stroke-width="1.0" stroke-linejoin="round" stroke-linecap="butt" d="m210.40945 78.57218l0 0c0 -8.306015 6.7333527 -15.0393715 15.039368 -15.0393715c8.306015 0 15.039368 6.7333565 15.039368 15.0393715c0 8.306015 -6.7333527 15.039368 -15.039368 15.039368c-8.306015 0 -15.039368 -6.7333527 -15.039368 -15.039368z" fill-rule="evenodd"/><path fill="#fff2cc" d="m155.10104 78.57218l0 0c0 -8.306015 6.733368 -15.0393715 15.039383 -15.0393715c8.306015 0 15.039368 6.7333565 15.039368 15.0393715c0 8.306015 -6.7333527 15.039368 -15.039368 15.039368c-8.306015 0 -15.039383 -6.7333527 -15.039383 -15.039368z" fill-rule="evenodd"/><path fill="#cbc1a3" d="m163.75565 74.074295c0 -0.8652115 0.70140076 -1.5666046 1.5666046 -1.5666046c0.86520386 0 1.5666046 0.7013931 1.5666046 1.5666046c0 0.86520386 -0.70140076 1.566597 -1.5666046 1.566597c-0.86520386 0 -1.5666046 -0.7013931 -1.5666046 -1.566597m9.636337 0c0 -0.8652115 0.70140076 -1.5666046 1.5666046 -1.5666046c0.86520386 0 1.5666046 0.7013931 1.5666046 1.5666046c0 0.86520386 -0.70140076 1.566597 -1.5666046 1.566597c-0.86520386 0 -1.5666046 -0.7013931 -1.5666046 -1.566597" fill-rule="evenodd"/><path fill="#000000" fill-opacity="0.0" d="m161.98898 85.13095q8.1514435 5.5982513 16.283844 0" fill-rule="evenodd"/><path fill="#000000" fill-opacity="0.0" d="m155.10104 78.57218l0 0c0 -8.306015 6.733368 -15.0393715 15.039383 -15.0393715c8.306015 0 15.039368 6.7333565 15.039368 15.0393715c0 8.306015 -6.7333527 15.039368 -15.039368 15.039368c-8.306015 0 -15.039383 -6.7333527 -15.039383 -15.039368z" fill-rule="evenodd"/><path stroke="#000000" stroke-width="1.0" stroke-linejoin="round" stroke-linecap="butt" d="m163.75565 74.074295c0 -0.8652115 0.70140076 -1.5666046 1.5666046 -1.5666046c0.86520386 0 1.5666046 0.7013931 1.5666046 1.5666046c0 0.86520386 -0.70140076 1.566597 -1.5666046 1.566597c-0.86520386 0 -1.5666046 -0.7013931 -1.5666046 -1.566597m9.636337 0c0 -0.8652115 0.70140076 -1.5666046 1.5666046 -1.5666046c0.86520386 0 1.5666046 0.7013931 1.5666046 1.5666046c0 0.86520386 -0.70140076 1.566597 -1.5666046 1.566597c-0.86520386 0 -1.5666046 -0.7013931 -1.5666046 -1.566597" fill-rule="evenodd"/><path stroke="#000000" stroke-width="1.0" stroke-linejoin="round" stroke-linecap="butt" d="m161.98898 85.13095q8.1514435 5.5982513 16.283844 0" fill-rule="evenodd"/><path stroke="#000000" stroke-width="1.0" stroke-linejoin="round" stroke-linecap="butt" d="m155.10104 78.57218l0 0c0 -8.306015 6.733368 -15.0393715 15.039383 -15.0393715c8.306015 0 15.039368 6.7333565 15.039368 15.0393715c0 8.306015 -6.7333527 15.039368 -15.039368 15.039368c-8.306015 0 -15.039383 -6.7333527 -15.039383 -15.039368z" fill-rule="evenodd"/><path fill="#fff2cc" d="m155.1063 129.56955l0 0c0 -8.306007 6.733368 -15.039368 15.039383 -15.039368c8.306015 0 15.039368 6.7333603 15.039368 15.039368c0 8.306015 -6.7333527 15.039368 -15.039368 15.039368c-8.306015 0 -15.039383 -6.7333527 -15.039383 -15.039368z" fill-rule="evenodd"/><path fill="#cbc1a3" d="m163.7609 125.07167c0 -0.8652115 0.70140076 -1.5666046 1.5666046 -1.5666046c0.86520386 0 1.5666046 0.7013931 1.5666046 1.5666046c0 0.86520386 -0.70140076 1.566597 -1.5666046 1.566597c-0.86520386 0 -1.5666046 -0.7013931 -1.5666046 -1.566597m9.636337 0c0 -0.8652115 0.70140076 -1.5666046 1.5666046 -1.5666046c0.86520386 0 1.5666046 0.7013931 1.5666046 1.5666046c0 0.86520386 -0.70140076 1.566597 -1.5666046 1.566597c-0.86520386 0 -1.5666046 -0.7013931 -1.5666046 -1.566597" fill-rule="evenodd"/><path fill="#000000" fill-opacity="0.0" d="m161.99423 136.12833q8.1514435 5.5982513 16.283844 0" fill-rule="evenodd"/><path fill="#000000" fill-opacity="0.0" d="m155.1063 129.56955l0 0c0 -8.306007 6.733368 -15.039368 15.039383 -15.039368c8.306015 0 15.039368 6.7333603 15.039368 15.039368c0 8.306015 -6.7333527 15.039368 -15.039368 15.039368c-8.306015 0 -15.039383 -6.7333527 -15.039383 -15.039368z" fill-rule="evenodd"/><path stroke="#000000" stroke-width="1.0" stroke-linejoin="round" stroke-linecap="butt" d="m163.7609 125.07167c0 -0.8652115 0.70140076 -1.5666046 1.5666046 -1.5666046c0.86520386 0 1.5666046 0.7013931 1.5666046 1.5666046c0 0.86520386 -0.70140076 1.566597 -1.5666046 1.566597c-0.86520386 0 -1.5666046 -0.7013931 -1.5666046 -1.566597m9.636337 0c0 -0.8652115 0.70140076 -1.5666046 1.5666046 -1.5666046c0.86520386 0 1.5666046 0.7013931 1.5666046 1.5666046c0 0.86520386 -0.70140076 1.566597 -1.5666046 1.566597c-0.86520386 0 -1.5666046 -0.7013931 -1.5666046 -1.566597" fill-rule="evenodd"/><path stroke="#000000" stroke-width="1.0" stroke-linejoin="round" stroke-linecap="butt" d="m161.99423 136.12833q8.1514435 5.5982513 16.283844 0" fill-rule="evenodd"/><path stroke="#000000" stroke-width="1.0" stroke-linejoin="round" stroke-linecap="butt" d="m155.1063 129.56955l0 0c0 -8.306007 6.733368 -15.039368 15.039383 -15.039368c8.306015 0 15.039368 6.7333603 15.039368 15.039368c0 8.306015 -6.7333527 15.039368 -15.039368 15.039368c-8.306015 0 -15.039383 -6.7333527 -15.039383 -15.039368z" fill-rule="evenodd"/><path fill="#fff2cc" d="m210.40814 180.56693l0 0c0 -8.306015 6.7333527 -15.039368 15.039368 -15.039368c8.306015 0 15.039368 6.7333527 15.039368 15.039368c0 8.306015 -6.7333527 15.039368 -15.039368 15.039368c-8.306015 0 -15.039368 -6.7333527 -15.039368 -15.039368z" fill-rule="evenodd"/><path fill="#cbc1a3" d="m219.06274 176.06905c0 -0.8652191 0.7013855 -1.5666046 1.5665894 -1.5666046c0.8652191 0 1.5666046 0.7013855 1.5666046 1.5666046c0 0.86520386 -0.7013855 1.5666046 -1.5666046 1.5666046c-0.86520386 0 -1.5665894 -0.70140076 -1.5665894 -1.5666046m9.636337 0c0 -0.8652191 0.7013855 -1.5666046 1.5665894 -1.5666046c0.8652191 0 1.5666046 0.7013855 1.5666046 1.5666046c0 0.86520386 -0.7013855 1.5666046 -1.5666046 1.5666046c-0.86520386 0 -1.5665894 -0.70140076 -1.5665894 -1.5666046" fill-rule="evenodd"/><path fill="#000000" fill-opacity="0.0" d="m217.29607 187.1257q8.1514435 5.5982513 16.283844 0" fill-rule="evenodd"/><path fill="#000000" fill-opacity="0.0" d="m210.40814 180.56693l0 0c0 -8.306015 6.7333527 -15.039368 15.039368 -15.039368c8.306015 0 15.039368 6.7333527 15.039368 15.039368c0 8.306015 -6.7333527 15.039368 -15.039368 15.039368c-8.306015 0 -15.039368 -6.7333527 -15.039368 -15.039368z" fill-rule="evenodd"/><path stroke="#000000" stroke-width="1.0" stroke-linejoin="round" stroke-linecap="butt" d="m219.06274 176.06905c0 -0.8652191 0.7013855 -1.5666046 1.5665894 -1.5666046c0.8652191 0 1.5666046 0.7013855 1.5666046 1.5666046c0 0.86520386 -0.7013855 1.5666046 -1.5666046 1.5666046c-0.86520386 0 -1.5665894 -0.70140076 -1.5665894 -1.5666046m9.636337 0c0 -0.8652191 0.7013855 -1.5666046 1.5665894 -1.5666046c0.8652191 0 1.5666046 0.7013855 1.5666046 1.5666046c0 0.86520386 -0.7013855 1.5666046 -1.5666046 1.5666046c-0.86520386 0 -1.5665894 -0.70140076 -1.5665894 -1.5666046" fill-rule="evenodd"/><path stroke="#000000" stroke-width="1.0" stroke-linejoin="round" stroke-linecap="butt" d="m217.29607 187.1257q8.1514435 5.5982513 16.283844 0" fill-rule="evenodd"/><path stroke="#000000" stroke-width="1.0" stroke-linejoin="round" stroke-linecap="butt" d="m210.40814 180.56693l0 0c0 -8.306015 6.7333527 -15.039368 15.039368 -15.039368c8.306015 0 15.039368 6.7333527 15.039368 15.039368c0 8.306015 -6.7333527 15.039368 -15.039368 15.039368c-8.306015 0 -15.039368 -6.7333527 -15.039368 -15.039368z" fill-rule="evenodd"/><path fill="#fff2cc" d="m265.7152 180.56693l0 0c0 -8.306015 6.733368 -15.039368 15.039398 -15.039368c8.306 0 15.039368 6.7333527 15.039368 15.039368c0 8.306015 -6.733368 15.039368 -15.039368 15.039368c-8.30603 0 -15.039398 -6.7333527 -15.039398 -15.039368z" fill-rule="evenodd"/><path fill="#cbc1a3" d="m274.3698 176.06905c0 -0.8652191 0.701416 -1.5666046 1.5666199 -1.5666046c0.86520386 0 1.5665894 0.7013855 1.5665894 1.5666046c0 0.86520386 -0.7013855 1.5666046 -1.5665894 1.5666046c-0.86520386 0 -1.5666199 -0.70140076 -1.5666199 -1.5666046m9.636353 0c0 -0.8652191 0.7013855 -1.5666046 1.5665894 -1.5666046c0.86520386 0 1.5666199 0.7013855 1.5666199 1.5666046c0 0.86520386 -0.701416 1.5666046 -1.5666199 1.5666046c-0.86520386 0 -1.5665894 -0.70140076 -1.5665894 -1.5666046" fill-rule="evenodd"/><path fill="#000000" fill-opacity="0.0" d="m272.60315 187.1257q8.151459 5.5982513 16.283844 0" fill-rule="evenodd"/><path fill="#000000" fill-opacity="0.0" d="m265.7152 180.56693l0 0c0 -8.306015 6.733368 -15.039368 15.039398 -15.039368c8.306 0 15.039368 6.7333527 15.039368 15.039368c0 8.306015 -6.733368 15.039368 -15.039368 15.039368c-8.30603 0 -15.039398 -6.7333527 -15.039398 -15.039368z" fill-rule="evenodd"/><path stroke="#000000" stroke-width="1.0" stroke-linejoin="round" stroke-linecap="butt" d="m274.3698 176.06905c0 -0.8652191 0.701416 -1.5666046 1.5666199 -1.5666046c0.86520386 0 1.5665894 0.7013855 1.5665894 1.5666046c0 0.86520386 -0.7013855 1.5666046 -1.5665894 1.5666046c-0.86520386 0 -1.5666199 -0.70140076 -1.5666199 -1.5666046m9.636353 0c0 -0.8652191 0.7013855 -1.5666046 1.5665894 -1.5666046c0.86520386 0 1.5666199 0.7013855 1.5666199 1.5666046c0 0.86520386 -0.701416 1.5666046 -1.5666199 1.5666046c-0.86520386 0 -1.5665894 -0.70140076 -1.5665894 -1.5666046" fill-rule="evenodd"/><path stroke="#000000" stroke-width="1.0" stroke-linejoin="round" stroke-linecap="butt" d="m272.60315 187.1257q8.151459 5.5982513 16.283844 0" fill-rule="evenodd"/><path stroke="#000000" stroke-width="1.0" stroke-linejoin="round" stroke-linecap="butt" d="m265.7152 180.56693l0 0c0 -8.306015 6.733368 -15.039368 15.039398 -15.039368c8.306 0 15.039368 6.7333527 15.039368 15.039368c0 8.306015 -6.733368 15.039368 -15.039368 15.039368c-8.30603 0 -15.039398 -6.7333527 -15.039398 -15.039368z" fill-rule="evenodd"/><path fill="#fff2cc" d="m155.10104 180.56693l0 0c0 -8.306015 6.733368 -15.039368 15.039383 -15.039368c8.306015 0 15.039368 6.7333527 15.039368 15.039368c0 8.306015 -6.7333527 15.039368 -15.039368 15.039368c-8.306015 0 -15.039383 -6.7333527 -15.039383 -15.039368z" fill-rule="evenodd"/><path fill="#cbc1a3" d="m163.75565 176.06905c0 -0.8652191 0.70140076 -1.5666046 1.5666046 -1.5666046c0.86520386 0 1.5666046 0.7013855 1.5666046 1.5666046c0 0.86520386 -0.70140076 1.5666046 -1.5666046 1.5666046c-0.86520386 0 -1.5666046 -0.70140076 -1.5666046 -1.5666046m9.636337 0c0 -0.8652191 0.70140076 -1.5666046 1.5666046 -1.5666046c0.86520386 0 1.5666046 0.7013855 1.5666046 1.5666046c0 0.86520386 -0.70140076 1.5666046 -1.5666046 1.5666046c-0.86520386 0 -1.5666046 -0.70140076 -1.5666046 -1.5666046" fill-rule="evenodd"/><path fill="#000000" fill-opacity="0.0" d="m161.98898 187.1257q8.1514435 5.5982513 16.283844 0" fill-rule="evenodd"/><path fill="#000000" fill-opacity="0.0" d="m155.10104 180.56693l0 0c0 -8.306015 6.733368 -15.039368 15.039383 -15.039368c8.306015 0 15.039368 6.7333527 15.039368 15.039368c0 8.306015 -6.7333527 15.039368 -15.039368 15.039368c-8.306015 0 -15.039383 -6.7333527 -15.039383 -15.039368z" fill-rule="evenodd"/><path stroke="#000000" stroke-width="1.0" stroke-linejoin="round" stroke-linecap="butt" d="m163.75565 176.06905c0 -0.8652191 0.70140076 -1.5666046 1.5666046 -1.5666046c0.86520386 0 1.5666046 0.7013855 1.5666046 1.5666046c0 0.86520386 -0.70140076 1.5666046 -1.5666046 1.5666046c-0.86520386 0 -1.5666046 -0.70140076 -1.5666046 -1.5666046m9.636337 0c0 -0.8652191 0.70140076 -1.5666046 1.5666046 -1.5666046c0.86520386 0 1.5666046 0.7013855 1.5666046 1.5666046c0 0.86520386 -0.70140076 1.5666046 -1.5666046 1.5666046c-0.86520386 0 -1.5666046 -0.70140076 -1.5666046 -1.5666046" fill-rule="evenodd"/><path stroke="#000000" stroke-width="1.0" stroke-linejoin="round" stroke-linecap="butt" d="m161.98898 187.1257q8.1514435 5.5982513 16.283844 0" fill-rule="evenodd"/><path stroke="#000000" stroke-width="1.0" stroke-linejoin="round" stroke-linecap="butt" d="m155.10104 180.56693l0 0c0 -8.306015 6.733368 -15.039368 15.039383 -15.039368c8.306015 0 15.039368 6.7333527 15.039368 15.039368c0 8.306015 -6.7333527 15.039368 -15.039368 15.039368c-8.306015 0 -15.039383 -6.7333527 -15.039383 -15.039368z" fill-rule="evenodd"/><path fill="#ffffff" d="m325.48688 78.57218l0 0c0 -8.306015 6.733368 -15.0393715 15.039368 -15.0393715c8.30603 0 15.039368 6.7333565 15.039368 15.0393715c0 8.306015 -6.7333374 15.039368 -15.039368 15.039368c-8.306 0 -15.039368 -6.7333527 -15.039368 -15.039368z" fill-rule="evenodd"/><path fill="#cbcbcb" d="m334.14148 74.074295c0 -0.8652115 0.7013855 -1.5666046 1.5665894 -1.5666046c0.8652344 0 1.5666199 0.7013931 1.5666199 1.5666046c0 0.86520386 -0.7013855 1.566597 -1.5666199 1.566597c-0.86520386 0 -1.5665894 -0.7013931 -1.5665894 -1.566597m9.636322 0c0 -0.8652115 0.701416 -1.5666046 1.5666199 -1.5666046c0.86520386 0 1.5665894 0.7013931 1.5665894 1.5666046c0 0.86520386 -0.7013855 1.566597 -1.5665894 1.566597c-0.86520386 0 -1.5666199 -0.7013931 -1.5666199 -1.566597" fill-rule="evenodd"/><path fill="#000000" fill-opacity="0.0" d="m332.37482 85.13095q8.151428 5.5982513 16.283844 0" fill-rule="evenodd"/><path fill="#000000" fill-opacity="0.0" d="m325.48688 78.57218l0 0c0 -8.306015 6.733368 -15.0393715 15.039368 -15.0393715c8.30603 0 15.039368 6.7333565 15.039368 15.0393715c0 8.306015 -6.7333374 15.039368 -15.039368 15.039368c-8.306 0 -15.039368 -6.7333527 -15.039368 -15.039368z" fill-rule="evenodd"/><path stroke="#000000" stroke-width="1.0" stroke-linejoin="round" stroke-linecap="butt" d="m334.14148 74.074295c0 -0.8652115 0.7013855 -1.5666046 1.5665894 -1.5666046c0.8652344 0 1.5666199 0.7013931 1.5666199 1.5666046c0 0.86520386 -0.7013855 1.566597 -1.5666199 1.566597c-0.86520386 0 -1.5665894 -0.7013931 -1.5665894 -1.566597m9.636322 0c0 -0.8652115 0.701416 -1.5666046 1.5666199 -1.5666046c0.86520386 0 1.5665894 0.7013931 1.5665894 1.5666046c0 0.86520386 -0.7013855 1.566597 -1.5665894 1.566597c-0.86520386 0 -1.5666199 -0.7013931 -1.5666199 -1.566597" fill-rule="evenodd"/><path stroke="#000000" stroke-width="1.0" stroke-linejoin="round" stroke-linecap="butt" d="m332.37482 85.13095q8.151428 5.5982513 16.283844 0" fill-rule="evenodd"/><path stroke="#000000" stroke-width="1.0" stroke-linejoin="round" stroke-linecap="butt" d="m325.48688 78.57218l0 0c0 -8.306015 6.733368 -15.0393715 15.039368 -15.0393715c8.30603 0 15.039368 6.7333565 15.039368 15.0393715c0 8.306015 -6.7333374 15.039368 -15.039368 15.039368c-8.306 0 -15.039368 -6.7333527 -15.039368 -15.039368z" fill-rule="evenodd"/><path fill="#ffffff" d="m325.48688 27.574802l0 0c0 -8.306013 6.733368 -15.03937 15.039368 -15.03937c8.30603 0 15.039368 6.7333565 15.039368 15.03937c0 8.306015 -6.7333374 15.0393715 -15.039368 15.0393715c-8.306 0 -15.039368 -6.7333565 -15.039368 -15.0393715z" fill-rule="evenodd"/><path fill="#cbcbcb" d="m334.14148 23.076918c0 -0.8652096 0.7013855 -1.5666008 1.5665894 -1.5666008c0.8652344 0 1.5666199 0.7013912 1.5666199 1.5666008c0 0.8652096 -0.7013855 1.5666008 -1.5666199 1.5666008c-0.86520386 0 -1.5665894 -0.7013912 -1.5665894 -1.5666008m9.636322 0c0 -0.8652096 0.701416 -1.5666008 1.5666199 -1.5666008c0.86520386 0 1.5665894 0.7013912 1.5665894 1.5666008c0 0.8652096 -0.7013855 1.5666008 -1.5665894 1.5666008c-0.86520386 0 -1.5666199 -0.7013912 -1.5666199 -1.5666008" fill-rule="evenodd"/><path fill="#000000" fill-opacity="0.0" d="m332.37482 34.13357q8.151428 5.598255 16.283844 0" fill-rule="evenodd"/><path fill="#000000" fill-opacity="0.0" d="m325.48688 27.574802l0 0c0 -8.306013 6.733368 -15.03937 15.039368 -15.03937c8.30603 0 15.039368 6.7333565 15.039368 15.03937c0 8.306015 -6.7333374 15.0393715 -15.039368 15.0393715c-8.306 0 -15.039368 -6.7333565 -15.039368 -15.0393715z" fill-rule="evenodd"/><path stroke="#000000" stroke-width="1.0" stroke-linejoin="round" stroke-linecap="butt" d="m334.14148 23.076918c0 -0.8652096 0.7013855 -1.5666008 1.5665894 -1.5666008c0.8652344 0 1.5666199 0.7013912 1.5666199 1.5666008c0 0.8652096 -0.7013855 1.5666008 -1.5666199 1.5666008c-0.86520386 0 -1.5665894 -0.7013912 -1.5665894 -1.5666008m9.636322 0c0 -0.8652096 0.701416 -1.5666008 1.5666199 -1.5666008c0.86520386 0 1.5665894 0.7013912 1.5665894 1.5666008c0 0.8652096 -0.7013855 1.5666008 -1.5665894 1.5666008c-0.86520386 0 -1.5666199 -0.7013912 -1.5666199 -1.5666008" fill-rule="evenodd"/><path stroke="#000000" stroke-width="1.0" stroke-linejoin="round" stroke-linecap="butt" d="m332.37482 34.13357q8.151428 5.598255 16.283844 0" fill-rule="evenodd"/><path stroke="#000000" stroke-width="1.0" stroke-linejoin="round" stroke-linecap="butt" d="m325.48688 27.574802l0 0c0 -8.306013 6.733368 -15.03937 15.039368 -15.03937c8.30603 0 15.039368 6.7333565 15.039368 15.03937c0 8.306015 -6.7333374 15.0393715 -15.039368 15.0393715c-8.306 0 -15.039368 -6.7333565 -15.039368 -15.0393715z" fill-rule="evenodd"/><path fill="#ffffff" d="m325.48688 180.56693l0 0c0 -8.306015 6.733368 -15.039368 15.039368 -15.039368c8.30603 0 15.039368 6.7333527 15.039368 15.039368c0 8.306015 -6.7333374 15.039368 -15.039368 15.039368c-8.306 0 -15.039368 -6.7333527 -15.039368 -15.039368z" fill-rule="evenodd"/><path fill="#cbcbcb" d="m334.14148 176.06905c0 -0.8652191 0.7013855 -1.5666046 1.5665894 -1.5666046c0.8652344 0 1.5666199 0.7013855 1.5666199 1.5666046c0 0.86520386 -0.7013855 1.5666046 -1.5666199 1.5666046c-0.86520386 0 -1.5665894 -0.70140076 -1.5665894 -1.5666046m9.636322 0c0 -0.8652191 0.701416 -1.5666046 1.5666199 -1.5666046c0.86520386 0 1.5665894 0.7013855 1.5665894 1.5666046c0 0.86520386 -0.7013855 1.5666046 -1.5665894 1.5666046c-0.86520386 0 -1.5666199 -0.70140076 -1.5666199 -1.5666046" fill-rule="evenodd"/><path fill="#000000" fill-opacity="0.0" d="m332.37482 187.1257q8.151428 5.5982513 16.283844 0" fill-rule="evenodd"/><path fill="#000000" fill-opacity="0.0" d="m325.48688 180.56693l0 0c0 -8.306015 6.733368 -15.039368 15.039368 -15.039368c8.30603 0 15.039368 6.7333527 15.039368 15.039368c0 8.306015 -6.7333374 15.039368 -15.039368 15.039368c-8.306 0 -15.039368 -6.7333527 -15.039368 -15.039368z" fill-rule="evenodd"/><path stroke="#000000" stroke-width="1.0" stroke-linejoin="round" stroke-linecap="butt" d="m334.14148 176.06905c0 -0.8652191 0.7013855 -1.5666046 1.5665894 -1.5666046c0.8652344 0 1.5666199 0.7013855 1.5666199 1.5666046c0 0.86520386 -0.7013855 1.5666046 -1.5666199 1.5666046c-0.86520386 0 -1.5665894 -0.70140076 -1.5665894 -1.5666046m9.636322 0c0 -0.8652191 0.701416 -1.5666046 1.5666199 -1.5666046c0.86520386 0 1.5665894 0.7013855 1.5665894 1.5666046c0 0.86520386 -0.7013855 1.5666046 -1.5665894 1.5666046c-0.86520386 0 -1.5666199 -0.70140076 -1.5666199 -1.5666046" fill-rule="evenodd"/><path stroke="#000000" stroke-width="1.0" stroke-linejoin="round" stroke-linecap="butt" d="m332.37482 187.1257q8.151428 5.5982513 16.283844 0" fill-rule="evenodd"/><path stroke="#000000" stroke-width="1.0" stroke-linejoin="round" stroke-linecap="butt" d="m325.48688 180.56693l0 0c0 -8.306015 6.733368 -15.039368 15.039368 -15.039368c8.30603 0 15.039368 6.7333527 15.039368 15.039368c0 8.306015 -6.7333374 15.039368 -15.039368 15.039368c-8.306 0 -15.039368 -6.7333527 -15.039368 -15.039368z" fill-rule="evenodd"/><path fill="#ffffff" d="m265.7152 27.574802l0 0c0 -8.306013 6.733368 -15.03937 15.039398 -15.03937c8.306 0 15.039368 6.7333565 15.039368 15.03937c0 8.306015 -6.733368 15.0393715 -15.039368 15.0393715c-8.30603 0 -15.039398 -6.7333565 -15.039398 -15.0393715z" fill-rule="evenodd"/><path fill="#cbcbcb" d="m274.3698 23.076918c0 -0.8652096 0.701416 -1.5666008 1.5666199 -1.5666008c0.86520386 0 1.5665894 0.7013912 1.5665894 1.5666008c0 0.8652096 -0.7013855 1.5666008 -1.5665894 1.5666008c-0.86520386 0 -1.5666199 -0.7013912 -1.5666199 -1.5666008m9.636353 0c0 -0.8652096 0.7013855 -1.5666008 1.5665894 -1.5666008c0.86520386 0 1.5666199 0.7013912 1.5666199 1.5666008c0 0.8652096 -0.701416 1.5666008 -1.5666199 1.5666008c-0.86520386 0 -1.5665894 -0.7013912 -1.5665894 -1.5666008" fill-rule="evenodd"/><path fill="#000000" fill-opacity="0.0" d="m272.60315 34.13357q8.151459 5.598255 16.283844 0" fill-rule="evenodd"/><path fill="#000000" fill-opacity="0.0" d="m265.7152 27.574802l0 0c0 -8.306013 6.733368 -15.03937 15.039398 -15.03937c8.306 0 15.039368 6.7333565 15.039368 15.03937c0 8.306015 -6.733368 15.0393715 -15.039368 15.0393715c-8.30603 0 -15.039398 -6.7333565 -15.039398 -15.0393715z" fill-rule="evenodd"/><path stroke="#000000" stroke-width="1.0" stroke-linejoin="round" stroke-linecap="butt" d="m274.3698 23.076918c0 -0.8652096 0.701416 -1.5666008 1.5666199 -1.5666008c0.86520386 0 1.5665894 0.7013912 1.5665894 1.5666008c0 0.8652096 -0.7013855 1.5666008 -1.5665894 1.5666008c-0.86520386 0 -1.5666199 -0.7013912 -1.5666199 -1.5666008m9.636353 0c0 -0.8652096 0.7013855 -1.5666008 1.5665894 -1.5666008c0.86520386 0 1.5666199 0.7013912 1.5666199 1.5666008c0 0.8652096 -0.701416 1.5666008 -1.5666199 1.5666008c-0.86520386 0 -1.5665894 -0.7013912 -1.5665894 -1.5666008" fill-rule="evenodd"/><path stroke="#000000" stroke-width="1.0" stroke-linejoin="round" stroke-linecap="butt" d="m272.60315 34.13357q8.151459 5.598255 16.283844 0" fill-rule="evenodd"/><path stroke="#000000" stroke-width="1.0" stroke-linejoin="round" stroke-linecap="butt" d="m265.7152 27.574802l0 0c0 -8.306013 6.733368 -15.03937 15.039398 -15.03937c8.306 0 15.039368 6.7333565 15.039368 15.03937c0 8.306015 -6.733368 15.0393715 -15.039368 15.0393715c-8.30603 0 -15.039398 -6.7333565 -15.039398 -15.0393715z" fill-rule="evenodd"/><path fill="#ffffff" d="m210.41077 27.574802l0 0c0 -8.306013 6.7333527 -15.03937 15.039368 -15.03937c8.306015 0 15.039368 6.7333565 15.039368 15.03937c0 8.306015 -6.7333527 15.0393715 -15.039368 15.0393715c-8.306015 0 -15.039368 -6.7333565 -15.039368 -15.0393715z" fill-rule="evenodd"/><path fill="#cbcbcb" d="m219.06537 23.076918c0 -0.8652096 0.7013855 -1.5666008 1.5665894 -1.5666008c0.8652191 0 1.5666046 0.7013912 1.5666046 1.5666008c0 0.8652096 -0.7013855 1.5666008 -1.5666046 1.5666008c-0.86520386 0 -1.5665894 -0.7013912 -1.5665894 -1.5666008m9.636337 0c0 -0.8652096 0.7013855 -1.5666008 1.5665894 -1.5666008c0.8652191 0 1.5666046 0.7013912 1.5666046 1.5666008c0 0.8652096 -0.7013855 1.5666008 -1.5666046 1.5666008c-0.86520386 0 -1.5665894 -0.7013912 -1.5665894 -1.5666008" fill-rule="evenodd"/><path fill="#000000" fill-opacity="0.0" d="m217.29869 34.13357q8.1514435 5.598255 16.283844 0" fill-rule="evenodd"/><path fill="#000000" fill-opacity="0.0" d="m210.41077 27.574802l0 0c0 -8.306013 6.7333527 -15.03937 15.039368 -15.03937c8.306015 0 15.039368 6.7333565 15.039368 15.03937c0 8.306015 -6.7333527 15.0393715 -15.039368 15.0393715c-8.306015 0 -15.039368 -6.7333565 -15.039368 -15.0393715z" fill-rule="evenodd"/><path stroke="#000000" stroke-width="1.0" stroke-linejoin="round" stroke-linecap="butt" d="m219.06537 23.076918c0 -0.8652096 0.7013855 -1.5666008 1.5665894 -1.5666008c0.8652191 0 1.5666046 0.7013912 1.5666046 1.5666008c0 0.8652096 -0.7013855 1.5666008 -1.5666046 1.5666008c-0.86520386 0 -1.5665894 -0.7013912 -1.5665894 -1.5666008m9.636337 0c0 -0.8652096 0.7013855 -1.5666008 1.5665894 -1.5666008c0.8652191 0 1.5666046 0.7013912 1.5666046 1.5666008c0 0.8652096 -0.7013855 1.5666008 -1.5666046 1.5666008c-0.86520386 0 -1.5665894 -0.7013912 -1.5665894 -1.5666008" fill-rule="evenodd"/><path stroke="#000000" stroke-width="1.0" stroke-linejoin="round" stroke-linecap="butt" d="m217.29869 34.13357q8.1514435 5.598255 16.283844 0" fill-rule="evenodd"/><path stroke="#000000" stroke-width="1.0" stroke-linejoin="round" stroke-linecap="butt" d="m210.41077 27.574802l0 0c0 -8.306013 6.7333527 -15.03937 15.039368 -15.03937c8.306015 0 15.039368 6.7333565 15.039368 15.03937c0 8.306015 -6.7333527 15.0393715 -15.039368 15.0393715c-8.306015 0 -15.039368 -6.7333565 -15.039368 -15.0393715z" fill-rule="evenodd"/><path fill="#ffffff" d="m155.1063 27.574802l0 0c0 -8.306013 6.733368 -15.03937 15.039383 -15.03937c8.306015 0 15.039368 6.7333565 15.039368 15.03937c0 8.306015 -6.7333527 15.0393715 -15.039368 15.0393715c-8.306015 0 -15.039383 -6.7333565 -15.039383 -15.0393715z" fill-rule="evenodd"/><path fill="#cbcbcb" d="m163.7609 23.076918c0 -0.8652096 0.70140076 -1.5666008 1.5666046 -1.5666008c0.86520386 0 1.5666046 0.7013912 1.5666046 1.5666008c0 0.8652096 -0.70140076 1.5666008 -1.5666046 1.5666008c-0.86520386 0 -1.5666046 -0.7013912 -1.5666046 -1.5666008m9.636337 0c0 -0.8652096 0.70140076 -1.5666008 1.5666046 -1.5666008c0.86520386 0 1.5666046 0.7013912 1.5666046 1.5666008c0 0.8652096 -0.70140076 1.5666008 -1.5666046 1.5666008c-0.86520386 0 -1.5666046 -0.7013912 -1.5666046 -1.5666008" fill-rule="evenodd"/><path fill="#000000" fill-opacity="0.0" d="m161.99423 34.13357q8.1514435 5.598255 16.283844 0" fill-rule="evenodd"/><path fill="#000000" fill-opacity="0.0" d="m155.1063 27.574802l0 0c0 -8.306013 6.733368 -15.03937 15.039383 -15.03937c8.306015 0 15.039368 6.7333565 15.039368 15.03937c0 8.306015 -6.7333527 15.0393715 -15.039368 15.0393715c-8.306015 0 -15.039383 -6.7333565 -15.039383 -15.0393715z" fill-rule="evenodd"/><path stroke="#000000" stroke-width="1.0" stroke-linejoin="round" stroke-linecap="butt" d="m163.7609 23.076918c0 -0.8652096 0.70140076 -1.5666008 1.5666046 -1.5666008c0.86520386 0 1.5666046 0.7013912 1.5666046 1.5666008c0 0.8652096 -0.70140076 1.5666008 -1.5666046 1.5666008c-0.86520386 0 -1.5666046 -0.7013912 -1.5666046 -1.5666008m9.636337 0c0 -0.8652096 0.70140076 -1.5666008 1.5666046 -1.5666008c0.86520386 0 1.5666046 0.7013912 1.5666046 1.5666008c0 0.8652096 -0.70140076 1.5666008 -1.5666046 1.5666008c-0.86520386 0 -1.5666046 -0.7013912 -1.5666046 -1.5666008" fill-rule="evenodd"/><path stroke="#000000" stroke-width="1.0" stroke-linejoin="round" stroke-linecap="butt" d="m161.99423 34.13357q8.1514435 5.598255 16.283844 0" fill-rule="evenodd"/><path stroke="#000000" stroke-width="1.0" stroke-linejoin="round" stroke-linecap="butt" d="m155.1063 27.574802l0 0c0 -8.306013 6.733368 -15.03937 15.039383 -15.03937c8.306015 0 15.039368 6.7333565 15.039368 15.03937c0 8.306015 -6.7333527 15.0393715 -15.039368 15.0393715c-8.306015 0 -15.039383 -6.7333565 -15.039383 -15.0393715z" fill-rule="evenodd"/><path fill="#ffffff" d="m95.33465 27.574802l0 0c0 -8.306013 6.7333527 -15.03937 15.039368 -15.03937c8.306015 0 15.039368 6.7333565 15.039368 15.03937c0 8.306015 -6.7333527 15.0393715 -15.039368 15.0393715c-8.306015 0 -15.039368 -6.7333565 -15.039368 -15.0393715z" fill-rule="evenodd"/><path fill="#cbcbcb" d="m103.98924 23.076918c0 -0.8652096 0.7013931 -1.5666008 1.5666046 -1.5666008c0.8652115 0 1.5666046 0.7013912 1.5666046 1.5666008c0 0.8652096 -0.7013931 1.5666008 -1.5666046 1.5666008c-0.8652115 0 -1.5666046 -0.7013912 -1.5666046 -1.5666008m9.636337 0c0 -0.8652096 0.7013931 -1.5666008 1.5666046 -1.5666008c0.8652115 0 1.5666046 0.7013912 1.5666046 1.5666008c0 0.8652096 -0.7013931 1.5666008 -1.5666046 1.5666008c-0.8652115 0 -1.5666046 -0.7013912 -1.5666046 -1.5666008" fill-rule="evenodd"/><path fill="#000000" fill-opacity="0.0" d="m102.22258 34.13357q8.151436 5.598255 16.283836 0" fill-rule="evenodd"/><path fill="#000000" fill-opacity="0.0" d="m95.33465 27.574802l0 0c0 -8.306013 6.7333527 -15.03937 15.039368 -15.03937c8.306015 0 15.039368 6.7333565 15.039368 15.03937c0 8.306015 -6.7333527 15.0393715 -15.039368 15.0393715c-8.306015 0 -15.039368 -6.7333565 -15.039368 -15.0393715z" fill-rule="evenodd"/><path stroke="#000000" stroke-width="1.0" stroke-linejoin="round" stroke-linecap="butt" d="m103.98924 23.076918c0 -0.8652096 0.7013931 -1.5666008 1.5666046 -1.5666008c0.8652115 0 1.5666046 0.7013912 1.5666046 1.5666008c0 0.8652096 -0.7013931 1.5666008 -1.5666046 1.5666008c-0.8652115 0 -1.5666046 -0.7013912 -1.5666046 -1.5666008m9.636337 0c0 -0.8652096 0.7013931 -1.5666008 1.5666046 -1.5666008c0.8652115 0 1.5666046 0.7013912 1.5666046 1.5666008c0 0.8652096 -0.7013931 1.5666008 -1.5666046 1.5666008c-0.8652115 0 -1.5666046 -0.7013912 -1.5666046 -1.5666008" fill-rule="evenodd"/><path stroke="#000000" stroke-width="1.0" stroke-linejoin="round" stroke-linecap="butt" d="m102.22258 34.13357q8.151436 5.598255 16.283836 0" fill-rule="evenodd"/><path stroke="#000000" stroke-width="1.0" stroke-linejoin="round" stroke-linecap="butt" d="m95.33465 27.574802l0 0c0 -8.306013 6.7333527 -15.03937 15.039368 -15.03937c8.306015 0 15.039368 6.7333565 15.039368 15.03937c0 8.306015 -6.7333527 15.0393715 -15.039368 15.0393715c-8.306015 0 -15.039368 -6.7333565 -15.039368 -15.0393715z" fill-rule="evenodd"/><path fill="#ffffff" d="m95.3294 78.57218l0 0c0 -8.306015 6.7333527 -15.0393715 15.039368 -15.0393715c8.306015 0 15.039368 6.7333565 15.039368 15.0393715c0 8.306015 -6.7333527 15.039368 -15.039368 15.039368c-8.306015 0 -15.039368 -6.7333527 -15.039368 -15.039368z" fill-rule="evenodd"/><path fill="#cbcbcb" d="m103.98399 74.074295c0 -0.8652115 0.7013931 -1.5666046 1.5666046 -1.5666046c0.8652115 0 1.566597 0.7013931 1.566597 1.5666046c0 0.86520386 -0.7013855 1.566597 -1.566597 1.566597c-0.8652115 0 -1.5666046 -0.7013931 -1.5666046 -1.566597m9.636337 0c0 -0.8652115 0.7013931 -1.5666046 1.5666046 -1.5666046c0.8652115 0 1.566597 0.7013931 1.566597 1.5666046c0 0.86520386 -0.7013855 1.566597 -1.566597 1.566597c-0.8652115 0 -1.5666046 -0.7013931 -1.5666046 -1.566597" fill-rule="evenodd"/><path fill="#000000" fill-opacity="0.0" d="m102.21733 85.13095q8.151436 5.5982513 16.283836 0" fill-rule="evenodd"/><path fill="#000000" fill-opacity="0.0" d="m95.3294 78.57218l0 0c0 -8.306015 6.7333527 -15.0393715 15.039368 -15.0393715c8.306015 0 15.039368 6.7333565 15.039368 15.0393715c0 8.306015 -6.7333527 15.039368 -15.039368 15.039368c-8.306015 0 -15.039368 -6.7333527 -15.039368 -15.039368z" fill-rule="evenodd"/><path stroke="#000000" stroke-width="1.0" stroke-linejoin="round" stroke-linecap="butt" d="m103.98399 74.074295c0 -0.8652115 0.7013931 -1.5666046 1.5666046 -1.5666046c0.8652115 0 1.566597 0.7013931 1.566597 1.5666046c0 0.86520386 -0.7013855 1.566597 -1.566597 1.566597c-0.8652115 0 -1.5666046 -0.7013931 -1.5666046 -1.566597m9.636337 0c0 -0.8652115 0.7013931 -1.5666046 1.5666046 -1.5666046c0.8652115 0 1.566597 0.7013931 1.566597 1.5666046c0 0.86520386 -0.7013855 1.566597 -1.566597 1.566597c-0.8652115 0 -1.5666046 -0.7013931 -1.5666046 -1.566597" fill-rule="evenodd"/><path stroke="#000000" stroke-width="1.0" stroke-linejoin="round" stroke-linecap="butt" d="m102.21733 85.13095q8.151436 5.5982513 16.283836 0" fill-rule="evenodd"/><path stroke="#000000" stroke-width="1.0" stroke-linejoin="round" stroke-linecap="butt" d="m95.3294 78.57218l0 0c0 -8.306015 6.7333527 -15.0393715 15.039368 -15.0393715c8.306015 0 15.039368 6.7333565 15.039368 15.0393715c0 8.306015 -6.7333527 15.039368 -15.039368 15.039368c-8.306015 0 -15.039368 -6.7333527 -15.039368 -15.039368z" fill-rule="evenodd"/><path fill="#ffffff" d="m95.33465 129.56955l0 0c0 -8.306007 6.7333527 -15.039368 15.039368 -15.039368c8.306015 0 15.039368 6.7333603 15.039368 15.039368c0 8.306015 -6.7333527 15.039368 -15.039368 15.039368c-8.306015 0 -15.039368 -6.7333527 -15.039368 -15.039368z" fill-rule="evenodd"/><path fill="#cbcbcb" d="m103.98924 125.07167c0 -0.8652115 0.7013931 -1.5666046 1.5666046 -1.5666046c0.8652115 0 1.5666046 0.7013931 1.5666046 1.5666046c0 0.86520386 -0.7013931 1.566597 -1.5666046 1.566597c-0.8652115 0 -1.5666046 -0.7013931 -1.5666046 -1.566597m9.636337 0c0 -0.8652115 0.7013931 -1.5666046 1.5666046 -1.5666046c0.8652115 0 1.5666046 0.7013931 1.5666046 1.5666046c0 0.86520386 -0.7013931 1.566597 -1.5666046 1.566597c-0.8652115 0 -1.5666046 -0.7013931 -1.5666046 -1.566597" fill-rule="evenodd"/><path fill="#000000" fill-opacity="0.0" d="m102.22258 136.12833q8.151436 5.5982513 16.283836 0" fill-rule="evenodd"/><path fill="#000000" fill-opacity="0.0" d="m95.33465 129.56955l0 0c0 -8.306007 6.7333527 -15.039368 15.039368 -15.039368c8.306015 0 15.039368 6.7333603 15.039368 15.039368c0 8.306015 -6.7333527 15.039368 -15.039368 15.039368c-8.306015 0 -15.039368 -6.7333527 -15.039368 -15.039368z" fill-rule="evenodd"/><path stroke="#000000" stroke-width="1.0" stroke-linejoin="round" stroke-linecap="butt" d="m103.98924 125.07167c0 -0.8652115 0.7013931 -1.5666046 1.5666046 -1.5666046c0.8652115 0 1.5666046 0.7013931 1.5666046 1.5666046c0 0.86520386 -0.7013931 1.566597 -1.5666046 1.566597c-0.8652115 0 -1.5666046 -0.7013931 -1.5666046 -1.566597m9.636337 0c0 -0.8652115 0.7013931 -1.5666046 1.5666046 -1.5666046c0.8652115 0 1.5666046 0.7013931 1.5666046 1.5666046c0 0.86520386 -0.7013931 1.566597 -1.5666046 1.566597c-0.8652115 0 -1.5666046 -0.7013931 -1.5666046 -1.566597" fill-rule="evenodd"/><path stroke="#000000" stroke-width="1.0" stroke-linejoin="round" stroke-linecap="butt" d="m102.22258 136.12833q8.151436 5.5982513 16.283836 0" fill-rule="evenodd"/><path stroke="#000000" stroke-width="1.0" stroke-linejoin="round" stroke-linecap="butt" d="m95.33465 129.56955l0 0c0 -8.306007 6.7333527 -15.039368 15.039368 -15.039368c8.306015 0 15.039368 6.7333603 15.039368 15.039368c0 8.306015 -6.7333527 15.039368 -15.039368 15.039368c-8.306015 0 -15.039368 -6.7333527 -15.039368 -15.039368z" fill-rule="evenodd"/><path fill="#ffffff" d="m95.3294 180.56693l0 0c0 -8.306015 6.7333527 -15.039368 15.039368 -15.039368c8.306015 0 15.039368 6.7333527 15.039368 15.039368c0 8.306015 -6.7333527 15.039368 -15.039368 15.039368c-8.306015 0 -15.039368 -6.7333527 -15.039368 -15.039368z" fill-rule="evenodd"/><path fill="#cbcbcb" d="m103.98399 176.06905c0 -0.8652191 0.7013931 -1.5666046 1.5666046 -1.5666046c0.8652115 0 1.566597 0.7013855 1.566597 1.5666046c0 0.86520386 -0.7013855 1.5666046 -1.566597 1.5666046c-0.8652115 0 -1.5666046 -0.70140076 -1.5666046 -1.5666046m9.636337 0c0 -0.8652191 0.7013931 -1.5666046 1.5666046 -1.5666046c0.8652115 0 1.566597 0.7013855 1.566597 1.5666046c0 0.86520386 -0.7013855 1.5666046 -1.566597 1.5666046c-0.8652115 0 -1.5666046 -0.70140076 -1.5666046 -1.5666046" fill-rule="evenodd"/><path fill="#000000" fill-opacity="0.0" d="m102.21733 187.1257q8.151436 5.5982513 16.283836 0" fill-rule="evenodd"/><path fill="#000000" fill-opacity="0.0" d="m95.3294 180.56693l0 0c0 -8.306015 6.7333527 -15.039368 15.039368 -15.039368c8.306015 0 15.039368 6.7333527 15.039368 15.039368c0 8.306015 -6.7333527 15.039368 -15.039368 15.039368c-8.306015 0 -15.039368 -6.7333527 -15.039368 -15.039368z" fill-rule="evenodd"/><path stroke="#000000" stroke-width="1.0" stroke-linejoin="round" stroke-linecap="butt" d="m103.98399 176.06905c0 -0.8652191 0.7013931 -1.5666046 1.5666046 -1.5666046c0.8652115 0 1.566597 0.7013855 1.566597 1.5666046c0 0.86520386 -0.7013855 1.5666046 -1.566597 1.5666046c-0.8652115 0 -1.5666046 -0.70140076 -1.5666046 -1.5666046m9.636337 0c0 -0.8652191 0.7013931 -1.5666046 1.5666046 -1.5666046c0.8652115 0 1.566597 0.7013855 1.566597 1.5666046c0 0.86520386 -0.7013855 1.5666046 -1.566597 1.5666046c-0.8652115 0 -1.5666046 -0.70140076 -1.5666046 -1.5666046" fill-rule="evenodd"/><path stroke="#000000" stroke-width="1.0" stroke-linejoin="round" stroke-linecap="butt" d="m102.21733 187.1257q8.151436 5.5982513 16.283836 0" fill-rule="evenodd"/><path stroke="#000000" stroke-width="1.0" stroke-linejoin="round" stroke-linecap="butt" d="m95.3294 180.56693l0 0c0 -8.306015 6.7333527 -15.039368 15.039368 -15.039368c8.306015 0 15.039368 6.7333527 15.039368 15.039368c0 8.306015 -6.7333527 15.039368 -15.039368 15.039368c-8.306015 0 -15.039368 -6.7333527 -15.039368 -15.039368z" fill-rule="evenodd"/><path fill="#ffffff" d="m95.3294 231.5643l0 0c0 -8.306015 6.7333527 -15.039368 15.039368 -15.039368c8.306015 0 15.039368 6.7333527 15.039368 15.039368c0 8.306015 -6.7333527 15.039368 -15.039368 15.039368c-8.306015 0 -15.039368 -6.7333527 -15.039368 -15.039368z" fill-rule="evenodd"/><path fill="#cbcbcb" d="m103.98399 227.06642c0 -0.8652191 0.7013931 -1.5666046 1.5666046 -1.5666046c0.8652115 0 1.566597 0.7013855 1.566597 1.5666046c0 0.86520386 -0.7013855 1.5666046 -1.566597 1.5666046c-0.8652115 0 -1.5666046 -0.70140076 -1.5666046 -1.5666046m9.636337 0c0 -0.8652191 0.7013931 -1.5666046 1.5666046 -1.5666046c0.8652115 0 1.566597 0.7013855 1.566597 1.5666046c0 0.86520386 -0.7013855 1.5666046 -1.566597 1.5666046c-0.8652115 0 -1.5666046 -0.70140076 -1.5666046 -1.5666046" fill-rule="evenodd"/><path fill="#000000" fill-opacity="0.0" d="m102.21733 238.12308q8.151436 5.5982513 16.283836 0" fill-rule="evenodd"/><path fill="#000000" fill-opacity="0.0" d="m95.3294 231.5643l0 0c0 -8.306015 6.7333527 -15.039368 15.039368 -15.039368c8.306015 0 15.039368 6.7333527 15.039368 15.039368c0 8.306015 -6.7333527 15.039368 -15.039368 15.039368c-8.306015 0 -15.039368 -6.7333527 -15.039368 -15.039368z" fill-rule="evenodd"/><path stroke="#000000" stroke-width="1.0" stroke-linejoin="round" stroke-linecap="butt" d="m103.98399 227.06642c0 -0.8652191 0.7013931 -1.5666046 1.5666046 -1.5666046c0.8652115 0 1.566597 0.7013855 1.566597 1.5666046c0 0.86520386 -0.7013855 1.5666046 -1.566597 1.5666046c-0.8652115 0 -1.5666046 -0.70140076 -1.5666046 -1.5666046m9.636337 0c0 -0.8652191 0.7013931 -1.5666046 1.5666046 -1.5666046c0.8652115 0 1.566597 0.7013855 1.566597 1.5666046c0 0.86520386 -0.7013855 1.5666046 -1.566597 1.5666046c-0.8652115 0 -1.5666046 -0.70140076 -1.5666046 -1.5666046" fill-rule="evenodd"/><path stroke="#000000" stroke-width="1.0" stroke-linejoin="round" stroke-linecap="butt" d="m102.21733 238.12308q8.151436 5.5982513 16.283836 0" fill-rule="evenodd"/><path stroke="#000000" stroke-width="1.0" stroke-linejoin="round" stroke-linecap="butt" d="m95.3294 231.5643l0 0c0 -8.306015 6.7333527 -15.039368 15.039368 -15.039368c8.306015 0 15.039368 6.7333527 15.039368 15.039368c0 8.306015 -6.7333527 15.039368 -15.039368 15.039368c-8.306015 0 -15.039368 -6.7333527 -15.039368 -15.039368z" fill-rule="evenodd"/><path fill="#ffffff" d="m155.10104 231.5643l0 0c0 -8.306015 6.733368 -15.039368 15.039383 -15.039368c8.306015 0 15.039368 6.7333527 15.039368 15.039368c0 8.306015 -6.7333527 15.039368 -15.039368 15.039368c-8.306015 0 -15.039383 -6.7333527 -15.039383 -15.039368z" fill-rule="evenodd"/><path fill="#cbcbcb" d="m163.75565 227.06642c0 -0.8652191 0.70140076 -1.5666046 1.5666046 -1.5666046c0.86520386 0 1.5666046 0.7013855 1.5666046 1.5666046c0 0.86520386 -0.70140076 1.5666046 -1.5666046 1.5666046c-0.86520386 0 -1.5666046 -0.70140076 -1.5666046 -1.5666046m9.636337 0c0 -0.8652191 0.70140076 -1.5666046 1.5666046 -1.5666046c0.86520386 0 1.5666046 0.7013855 1.5666046 1.5666046c0 0.86520386 -0.70140076 1.5666046 -1.5666046 1.5666046c-0.86520386 0 -1.5666046 -0.70140076 -1.5666046 -1.5666046" fill-rule="evenodd"/><path fill="#000000" fill-opacity="0.0" d="m161.98898 238.12308q8.1514435 5.5982513 16.283844 0" fill-rule="evenodd"/><path fill="#000000" fill-opacity="0.0" d="m155.10104 231.5643l0 0c0 -8.306015 6.733368 -15.039368 15.039383 -15.039368c8.306015 0 15.039368 6.7333527 15.039368 15.039368c0 8.306015 -6.7333527 15.039368 -15.039368 15.039368c-8.306015 0 -15.039383 -6.7333527 -15.039383 -15.039368z" fill-rule="evenodd"/><path stroke="#000000" stroke-width="1.0" stroke-linejoin="round" stroke-linecap="butt" d="m163.75565 227.06642c0 -0.8652191 0.70140076 -1.5666046 1.5666046 -1.5666046c0.86520386 0 1.5666046 0.7013855 1.5666046 1.5666046c0 0.86520386 -0.70140076 1.5666046 -1.5666046 1.5666046c-0.86520386 0 -1.5666046 -0.70140076 -1.5666046 -1.5666046m9.636337 0c0 -0.8652191 0.70140076 -1.5666046 1.5666046 -1.5666046c0.86520386 0 1.5666046 0.7013855 1.5666046 1.5666046c0 0.86520386 -0.70140076 1.5666046 -1.5666046 1.5666046c-0.86520386 0 -1.5666046 -0.70140076 -1.5666046 -1.5666046" fill-rule="evenodd"/><path stroke="#000000" stroke-width="1.0" stroke-linejoin="round" stroke-linecap="butt" d="m161.98898 238.12308q8.1514435 5.5982513 16.283844 0" fill-rule="evenodd"/><path stroke="#000000" stroke-width="1.0" stroke-linejoin="round" stroke-linecap="butt" d="m155.10104 231.5643l0 0c0 -8.306015 6.733368 -15.039368 15.039383 -15.039368c8.306015 0 15.039368 6.7333527 15.039368 15.039368c0 8.306015 -6.7333527 15.039368 -15.039368 15.039368c-8.306015 0 -15.039383 -6.7333527 -15.039383 -15.039368z" fill-rule="evenodd"/><path fill="#ffffff" d="m210.41077 231.5643l0 0c0 -8.306015 6.7333527 -15.039368 15.039368 -15.039368c8.306015 0 15.039368 6.7333527 15.039368 15.039368c0 8.306015 -6.7333527 15.039368 -15.039368 15.039368c-8.306015 0 -15.039368 -6.7333527 -15.039368 -15.039368z" fill-rule="evenodd"/><path fill="#cbcbcb" d="m219.06537 227.06642c0 -0.8652191 0.7013855 -1.5666046 1.5665894 -1.5666046c0.8652191 0 1.5666046 0.7013855 1.5666046 1.5666046c0 0.86520386 -0.7013855 1.5666046 -1.5666046 1.5666046c-0.86520386 0 -1.5665894 -0.70140076 -1.5665894 -1.5666046m9.636337 0c0 -0.8652191 0.7013855 -1.5666046 1.5665894 -1.5666046c0.8652191 0 1.5666046 0.7013855 1.5666046 1.5666046c0 0.86520386 -0.7013855 1.5666046 -1.5666046 1.5666046c-0.86520386 0 -1.5665894 -0.70140076 -1.5665894 -1.5666046" fill-rule="evenodd"/><path fill="#000000" fill-opacity="0.0" d="m217.29869 238.12308q8.1514435 5.5982513 16.283844 0" fill-rule="evenodd"/><path fill="#000000" fill-opacity="0.0" d="m210.41077 231.5643l0 0c0 -8.306015 6.7333527 -15.039368 15.039368 -15.039368c8.306015 0 15.039368 6.7333527 15.039368 15.039368c0 8.306015 -6.7333527 15.039368 -15.039368 15.039368c-8.306015 0 -15.039368 -6.7333527 -15.039368 -15.039368z" fill-rule="evenodd"/><path stroke="#000000" stroke-width="1.0" stroke-linejoin="round" stroke-linecap="butt" d="m219.06537 227.06642c0 -0.8652191 0.7013855 -1.5666046 1.5665894 -1.5666046c0.8652191 0 1.5666046 0.7013855 1.5666046 1.5666046c0 0.86520386 -0.7013855 1.5666046 -1.5666046 1.5666046c-0.86520386 0 -1.5665894 -0.70140076 -1.5665894 -1.5666046m9.636337 0c0 -0.8652191 0.7013855 -1.5666046 1.5665894 -1.5666046c0.8652191 0 1.5666046 0.7013855 1.5666046 1.5666046c0 0.86520386 -0.7013855 1.5666046 -1.5666046 1.5666046c-0.86520386 0 -1.5665894 -0.70140076 -1.5665894 -1.5666046" fill-rule="evenodd"/><path stroke="#000000" stroke-width="1.0" stroke-linejoin="round" stroke-linecap="butt" d="m217.29869 238.12308q8.1514435 5.5982513 16.283844 0" fill-rule="evenodd"/><path stroke="#000000" stroke-width="1.0" stroke-linejoin="round" stroke-linecap="butt" d="m210.41077 231.5643l0 0c0 -8.306015 6.7333527 -15.039368 15.039368 -15.039368c8.306015 0 15.039368 6.7333527 15.039368 15.039368c0 8.306015 -6.7333527 15.039368 -15.039368 15.039368c-8.306015 0 -15.039368 -6.7333527 -15.039368 -15.039368z" fill-rule="evenodd"/><path fill="#ffffff" d="m265.72046 231.5643l0 0c0 -8.306015 6.733368 -15.039368 15.039398 -15.039368c8.306 0 15.039368 6.7333527 15.039368 15.039368c0 8.306015 -6.733368 15.039368 -15.039368 15.039368c-8.30603 0 -15.039398 -6.7333527 -15.039398 -15.039368z" fill-rule="evenodd"/><path fill="#cbcbcb" d="m274.37506 227.06642c0 -0.8652191 0.701416 -1.5666046 1.5666199 -1.5666046c0.86520386 0 1.5665894 0.7013855 1.5665894 1.5666046c0 0.86520386 -0.7013855 1.5666046 -1.5665894 1.5666046c-0.86520386 0 -1.5666199 -0.70140076 -1.5666199 -1.5666046m9.636353 0c0 -0.8652191 0.7013855 -1.5666046 1.5665894 -1.5666046c0.86520386 0 1.5666199 0.7013855 1.5666199 1.5666046c0 0.86520386 -0.701416 1.5666046 -1.5666199 1.5666046c-0.86520386 0 -1.5665894 -0.70140076 -1.5665894 -1.5666046" fill-rule="evenodd"/><path fill="#000000" fill-opacity="0.0" d="m272.6084 238.12308q8.151459 5.5982513 16.283844 0" fill-rule="evenodd"/><path fill="#000000" fill-opacity="0.0" d="m265.72046 231.5643l0 0c0 -8.306015 6.733368 -15.039368 15.039398 -15.039368c8.306 0 15.039368 6.7333527 15.039368 15.039368c0 8.306015 -6.733368 15.039368 -15.039368 15.039368c-8.30603 0 -15.039398 -6.7333527 -15.039398 -15.039368z" fill-rule="evenodd"/><path stroke="#000000" stroke-width="1.0" stroke-linejoin="round" stroke-linecap="butt" d="m274.37506 227.06642c0 -0.8652191 0.701416 -1.5666046 1.5666199 -1.5666046c0.86520386 0 1.5665894 0.7013855 1.5665894 1.5666046c0 0.86520386 -0.7013855 1.5666046 -1.5665894 1.5666046c-0.86520386 0 -1.5666199 -0.70140076 -1.5666199 -1.5666046m9.636353 0c0 -0.8652191 0.7013855 -1.5666046 1.5665894 -1.5666046c0.86520386 0 1.5666199 0.7013855 1.5666199 1.5666046c0 0.86520386 -0.701416 1.5666046 -1.5666199 1.5666046c-0.86520386 0 -1.5665894 -0.70140076 -1.5665894 -1.5666046" fill-rule="evenodd"/><path stroke="#000000" stroke-width="1.0" stroke-linejoin="round" stroke-linecap="butt" d="m272.6084 238.12308q8.151459 5.5982513 16.283844 0" fill-rule="evenodd"/><path stroke="#000000" stroke-width="1.0" stroke-linejoin="round" stroke-linecap="butt" d="m265.72046 231.5643l0 0c0 -8.306015 6.733368 -15.039368 15.039398 -15.039368c8.306 0 15.039368 6.7333527 15.039368 15.039368c0 8.306015 -6.733368 15.039368 -15.039368 15.039368c-8.30603 0 -15.039398 -6.7333527 -15.039398 -15.039368z" fill-rule="evenodd"/><path fill="#ffffff" d="m325.49213 231.5643l0 0c0 -8.306015 6.733368 -15.039368 15.039368 -15.039368c8.30603 0 15.039368 6.7333527 15.039368 15.039368c0 8.306015 -6.7333374 15.039368 -15.039368 15.039368c-8.306 0 -15.039368 -6.7333527 -15.039368 -15.039368z" fill-rule="evenodd"/><path fill="#cbcbcb" d="m334.14673 227.06642c0 -0.8652191 0.7013855 -1.5666046 1.5665894 -1.5666046c0.8652344 0 1.5666199 0.7013855 1.5666199 1.5666046c0 0.86520386 -0.7013855 1.5666046 -1.5666199 1.5666046c-0.86520386 0 -1.5665894 -0.70140076 -1.5665894 -1.5666046m9.636322 0c0 -0.8652191 0.701416 -1.5666046 1.5666199 -1.5666046c0.86520386 0 1.5665894 0.7013855 1.5665894 1.5666046c0 0.86520386 -0.7013855 1.5666046 -1.5665894 1.5666046c-0.86520386 0 -1.5666199 -0.70140076 -1.5666199 -1.5666046" fill-rule="evenodd"/><path fill="#000000" fill-opacity="0.0" d="m332.38007 238.12308q8.151428 5.5982513 16.283844 0" fill-rule="evenodd"/><path fill="#000000" fill-opacity="0.0" d="m325.49213 231.5643l0 0c0 -8.306015 6.733368 -15.039368 15.039368 -15.039368c8.30603 0 15.039368 6.7333527 15.039368 15.039368c0 8.306015 -6.7333374 15.039368 -15.039368 15.039368c-8.306 0 -15.039368 -6.7333527 -15.039368 -15.039368z" fill-rule="evenodd"/><path stroke="#000000" stroke-width="1.0" stroke-linejoin="round" stroke-linecap="butt" d="m334.14673 227.06642c0 -0.8652191 0.7013855 -1.5666046 1.5665894 -1.5666046c0.8652344 0 1.5666199 0.7013855 1.5666199 1.5666046c0 0.86520386 -0.7013855 1.5666046 -1.5666199 1.5666046c-0.86520386 0 -1.5665894 -0.70140076 -1.5665894 -1.5666046m9.636322 0c0 -0.8652191 0.701416 -1.5666046 1.5666199 -1.5666046c0.86520386 0 1.5665894 0.7013855 1.5665894 1.5666046c0 0.86520386 -0.7013855 1.5666046 -1.5665894 1.5666046c-0.86520386 0 -1.5666199 -0.70140076 -1.5666199 -1.5666046" fill-rule="evenodd"/><path stroke="#000000" stroke-width="1.0" stroke-linejoin="round" stroke-linecap="butt" d="m332.38007 238.12308q8.151428 5.5982513 16.283844 0" fill-rule="evenodd"/><path stroke="#000000" stroke-width="1.0" stroke-linejoin="round" stroke-linecap="butt" d="m325.49213 231.5643l0 0c0 -8.306015 6.733368 -15.039368 15.039368 -15.039368c8.30603 0 15.039368 6.7333527 15.039368 15.039368c0 8.306015 -6.7333374 15.039368 -15.039368 15.039368c-8.306 0 -15.039368 -6.7333527 -15.039368 -15.039368z" fill-rule="evenodd"/></g></svg>