<?xml version="1.0" encoding="iso-8859-1"?>
<!-- Uploaded to: SVG Repo, www.svgrepo.com, Generator: SVG Repo Mixer Tools -->
<svg height="800px" width="800px" version="1.1" id="Capa_1" xmlns="http://www.w3.org/2000/svg" xmlns:xlink="http://www.w3.org/1999/xlink" 
	 viewBox="0 0 284.598 284.598" xml:space="preserve">
<g>
	<path style="fill:#030104;" d="M115.581,129.334c-2.003-5.198-7.036-8.887-12.928-8.887c-5.894,0-10.925,3.688-12.93,8.887h-7.047
		v9.936h7.059c2.004,5.185,7.036,8.874,12.918,8.874c5.88,0,10.913-3.689,12.917-8.874h7.06v-9.936H115.581z M102.653,142.298
		c-4.408,0-8.003-3.594-8.003-8.002s3.595-8.003,8.003-8.003s8.002,3.595,8.002,8.003
		C110.655,138.704,107.061,142.298,102.653,142.298z"/>
	<path style="fill:#030104;" d="M143.501,242.027c-4.408,0-8.003,3.596-8.003,8.002c0,4.408,3.595,8.004,8.003,8.004
		c4.407,0,8.002-3.596,8.002-8.004C151.503,245.622,147.908,242.027,143.501,242.027z"/>
	<path style="fill:#030104;" d="M262.205,109.193h-9.559c2.204-145.976-217.667-145.209-219.87,0.012l-10.477,0.059l0.012,60.081
		l10.548-0.035c1.061,153.589,220.553,153.86,219.457-0.046h9.983L262.205,109.193z M163.477,255.002h-7.059
		c-2.004,5.187-7.036,8.875-12.917,8.875s-10.914-3.688-12.918-8.875h-7.059v-9.935h7.047c2.004-5.197,7.037-8.887,12.93-8.887
		s10.925,3.689,12.929,8.887h7.047V255.002z M212.364,187.272l-0.048,52.74c0.094,17.549-12.539,22.203-29.877,22.038v-29.252
		c-23.782-9.959-49.875-11.891-79.917,0c0,9.747,0,19.481,0,29.229c-18.868,0.012-29.535-6.693-29.7-22.003l-0.012-52.823
		c-0.047-15.651-7.188-22.77-20.212-22.816l0.012-67.224c0.107-28.852,12.989-46.743,46.33-46.99l83.854,0.012
		c33.942-0.035,49.604,16.358,49.499,46.978l0.012,67.13C218.598,164.36,212.305,172.41,212.364,187.272z"/>
	<path style="fill:#030104;" d="M195.063,129.334c-2.004-5.198-7.036-8.887-12.929-8.887s-10.925,3.688-12.929,8.887h-7.047v9.936
		h7.059c2.004,5.185,7.036,8.874,12.917,8.874s10.913-3.689,12.917-8.874h7.059v-9.936H195.063z M182.134,142.298
		c-4.407,0-8.002-3.594-8.002-8.002s3.595-8.003,8.002-8.003s8.002,3.595,8.002,8.003S186.541,142.298,182.134,142.298z"/>
</g>
</svg>